<svg xmlns="http://www.w3.org/2000/svg" width="41" height="41" viewBox="0 0 41 41" fill="none">
  <path d="M20.916 40.5C31.9617 40.5 40.916 31.5457 40.916 20.5C40.916 9.4543 31.9617 0.5 20.916 0.5C9.87032 0.5 0.916016 9.4543 0.916016 20.5C0.916016 31.5457 9.87032 40.5 20.916 40.5Z" fill="#B4E07C"/>
  <path d="M32.4355 20.4999C32.4355 26.0273 28.9756 30.6897 24.2287 32.2087C25.0093 31.0062 25.5789 29.6349 25.8743 28.1792C32.541 23.0104 29.6929 11.9978 21.6127 11.1539C18.0895 16.7235 22.6042 19.5716 23.3215 21.5336C25.1148 25.1412 24.3764 29.867 21.5072 32.694C7.51985 32.8627 4.94601 13.2214 17.4777 8.81212C16.6971 10.0146 16.1485 11.4071 15.8743 12.8416C9.73504 17.6307 11.7182 27.8416 19.081 29.6349C19.4186 29.7193 19.7772 29.7615 20.1148 29.8037C23.7013 24.2973 19.2076 21.3227 18.4903 19.4872C16.6549 15.8796 17.33 11.1328 20.1992 8.26359C26.8869 7.86275 32.4566 13.5589 32.4355 20.4999Z" fill="#222531"/>
</svg>